<svg width="181" height="60" viewBox="0 0 181 60" fill="none" xmlns="http://www.w3.org/2000/svg">
<rect x="1" y="1" width="179" height="58" rx="19" fill="#3B9438" stroke="white" stroke-width="2"/>
<path d="M72.0454 35.12C71.1921 35.12 70.4321 34.9533 69.7654 34.62C69.1121 34.2867 68.5587 33.84 68.1054 33.28C67.6654 32.7067 67.3321 32.06 67.1054 31.34C66.8787 30.62 66.7654 29.8867 66.7654 29.14C66.7654 28.34 66.8921 27.54 67.1454 26.74C67.4121 25.94 67.7854 25.18 68.2654 24.46C68.7587 23.74 69.3387 23.1 70.0054 22.54C70.6854 21.98 71.4454 21.54 72.2854 21.22C73.1254 20.8867 74.0321 20.72 75.0054 20.72C76.3121 20.72 77.3587 21.0133 78.1454 21.6C78.9454 22.1733 79.4721 22.9133 79.7254 23.82L77.3654 25.24C77.2454 24.6933 77.0321 24.2733 76.7254 23.98C76.4321 23.6733 76.0921 23.46 75.7054 23.34C75.3187 23.22 74.9187 23.16 74.5054 23.16C73.6787 23.16 72.9587 23.34 72.3454 23.7C71.7321 24.0467 71.2187 24.5067 70.8054 25.08C70.3921 25.6533 70.0787 26.28 69.8654 26.96C69.6654 27.6267 69.5654 28.2733 69.5654 28.9C69.5654 29.58 69.6787 30.2067 69.9054 30.78C70.1321 31.3533 70.4721 31.8133 70.9254 32.16C71.3787 32.5067 71.9321 32.68 72.5854 32.68C72.9987 32.68 73.4254 32.6067 73.8654 32.46C74.3187 32.3 74.7521 32.0667 75.1654 31.76C75.5787 31.44 75.9387 31.0267 76.2454 30.52L78.2254 31.82C77.7721 32.54 77.1987 33.1467 76.5054 33.64C75.8121 34.1333 75.0721 34.5067 74.2854 34.76C73.5121 35 72.7654 35.12 72.0454 35.12ZM83.2095 35.2C82.4361 35.2 81.7695 35.0133 81.2095 34.64C80.6628 34.2533 80.2361 33.74 79.9295 33.1C79.6361 32.4467 79.4895 31.7133 79.4895 30.9C79.4895 30.0333 79.6428 29.2067 79.9495 28.42C80.2561 27.6333 80.6761 26.9333 81.2095 26.32C81.7561 25.7067 82.3695 25.2267 83.0495 24.88C83.7428 24.52 84.4695 24.34 85.2295 24.34C85.9495 24.34 86.5628 24.5333 87.0695 24.92C87.5761 25.2933 87.9228 25.7733 88.1095 26.36L88.5095 24.56H91.1895L89.6295 31.92C89.6161 31.9867 89.6028 32.0533 89.5895 32.12C89.5761 32.1733 89.5695 32.2267 89.5695 32.28C89.5695 32.56 89.7295 32.7067 90.0495 32.72L89.5695 35C89.3295 35.04 89.1161 35.0733 88.9295 35.1C88.7561 35.1267 88.6028 35.14 88.4695 35.14C87.9895 35.14 87.6161 35.04 87.3495 34.84C87.0828 34.64 86.9495 34.34 86.9495 33.94C86.9495 33.8867 86.9561 33.8267 86.9695 33.76C86.9828 33.68 86.9961 33.5933 87.0095 33.5C87.0228 33.3933 87.0428 33.2867 87.0695 33.18C86.5628 33.8333 85.9628 34.3333 85.2695 34.68C84.5761 35.0267 83.8895 35.2 83.2095 35.2ZM84.4095 32.92C84.6361 32.92 84.8761 32.88 85.1295 32.8C85.3828 32.7067 85.6295 32.5867 85.8695 32.44C86.1228 32.28 86.3561 32.0933 86.5695 31.88C86.7828 31.6533 86.9628 31.4133 87.1095 31.16L87.6295 28.66C87.5895 28.2733 87.4695 27.9267 87.2695 27.62C87.0695 27.3133 86.8228 27.0733 86.5295 26.9C86.2361 26.7133 85.9228 26.62 85.5895 26.62C85.1628 26.62 84.7495 26.7333 84.3495 26.96C83.9628 27.1733 83.6161 27.4667 83.3095 27.84C83.0028 28.2 82.7561 28.6133 82.5695 29.08C82.3961 29.5333 82.3095 30 82.3095 30.48C82.3095 30.9333 82.3961 31.3467 82.5695 31.72C82.7428 32.0933 82.9828 32.3867 83.2895 32.6C83.6095 32.8133 83.9828 32.92 84.4095 32.92ZM92.5123 33.34C92.5123 33.22 92.5189 33.1 92.5323 32.98C92.5456 32.86 92.5656 32.7333 92.5923 32.6L93.8723 26.58H92.5723L93.0123 24.52H94.2923L95.0123 21.12H97.6923L96.9723 24.52H99.0723L98.6323 26.58H96.5523L95.4523 31.7C95.4389 31.7533 95.4256 31.8067 95.4123 31.86C95.4123 31.9133 95.4123 31.9667 95.4123 32.02C95.4123 32.2733 95.4856 32.4533 95.6323 32.56C95.7789 32.6667 95.9589 32.72 96.1723 32.72C96.3456 32.72 96.5189 32.7 96.6923 32.66C96.8789 32.62 97.0523 32.5667 97.2123 32.5C97.3723 32.4333 97.5123 32.38 97.6323 32.34L97.7123 34.46C97.4456 34.58 97.1456 34.7 96.8123 34.82C96.4789 34.9267 96.1323 35.0133 95.7723 35.08C95.4123 35.1467 95.0523 35.18 94.6923 35.18C94.0656 35.18 93.5456 35.04 93.1323 34.76C92.7189 34.4667 92.5123 33.9933 92.5123 33.34ZM103.516 35.2C102.636 35.2 101.869 35.0133 101.216 34.64C100.576 34.2533 100.083 33.7267 99.736 33.06C99.4027 32.38 99.236 31.6133 99.236 30.76C99.236 29.8933 99.4027 29.0733 99.736 28.3C100.069 27.5267 100.536 26.8467 101.136 26.26C101.736 25.66 102.436 25.1933 103.236 24.86C104.036 24.5133 104.903 24.34 105.836 24.34C106.596 24.34 107.256 24.4533 107.816 24.68C108.376 24.9067 108.809 25.24 109.116 25.68C109.423 26.1067 109.576 26.6333 109.576 27.26C109.576 28.3667 109.069 29.2067 108.056 29.78C107.056 30.3533 105.549 30.64 103.536 30.64C103.136 30.64 102.703 30.6333 102.236 30.62C101.769 30.5933 101.263 30.5533 100.716 30.5L101.056 28.82C101.536 28.86 101.976 28.8933 102.376 28.92C102.776 28.9333 103.169 28.94 103.556 28.94C104.423 28.94 105.103 28.88 105.596 28.76C106.103 28.64 106.469 28.4667 106.696 28.24C106.923 28.0133 107.036 27.7467 107.036 27.44C107.036 27.1733 106.969 26.96 106.836 26.8C106.703 26.6267 106.516 26.5 106.276 26.42C106.049 26.3267 105.776 26.28 105.456 26.28C104.936 26.28 104.456 26.4067 104.016 26.66C103.589 26.9 103.216 27.2333 102.896 27.66C102.576 28.0867 102.329 28.5733 102.156 29.12C101.983 29.6667 101.896 30.2467 101.896 30.86C101.896 31.3133 101.969 31.7267 102.116 32.1C102.276 32.46 102.509 32.74 102.816 32.94C103.123 33.14 103.516 33.24 103.996 33.24C104.529 33.24 105.029 33.1133 105.496 32.86C105.976 32.6067 106.356 32.2533 106.636 31.8L108.756 32.46C108.409 32.9933 107.956 33.4667 107.396 33.88C106.836 34.2933 106.223 34.62 105.556 34.86C104.889 35.0867 104.209 35.2 103.516 35.2ZM113.172 39.46C112.078 39.46 111.192 39.2667 110.512 38.88C109.845 38.5067 109.318 37.9733 108.932 37.28L110.692 35.86C110.958 36.3533 111.345 36.74 111.852 37.02C112.358 37.3 112.938 37.44 113.592 37.44C114.112 37.44 114.612 37.3333 115.092 37.12C115.572 36.92 115.992 36.6 116.352 36.16C116.725 35.7333 116.978 35.18 117.112 34.5L117.392 33.18C116.938 33.78 116.378 34.2467 115.712 34.58C115.058 34.9 114.398 35.06 113.732 35.06C112.998 35.06 112.365 34.8733 111.832 34.5C111.312 34.1267 110.918 33.6267 110.652 33C110.385 32.36 110.252 31.6533 110.252 30.88C110.252 30.0133 110.405 29.1867 110.712 28.4C111.032 27.6133 111.465 26.92 112.012 26.32C112.572 25.7067 113.205 25.2267 113.912 24.88C114.632 24.52 115.385 24.34 116.172 24.34C116.945 24.34 117.578 24.5267 118.072 24.9C118.578 25.26 118.952 25.7467 119.192 26.36L119.572 24.52H121.932L119.792 34.5C119.578 35.54 119.152 36.4267 118.512 37.16C117.872 37.9067 117.092 38.4733 116.172 38.86C115.252 39.26 114.252 39.46 113.172 39.46ZM115.112 32.92C115.378 32.92 115.638 32.8733 115.892 32.78C116.158 32.6867 116.412 32.56 116.652 32.4C116.892 32.24 117.112 32.0533 117.312 31.84C117.512 31.6133 117.685 31.3867 117.832 31.16L118.352 28.66C118.298 28.2467 118.172 27.8867 117.972 27.58C117.772 27.2733 117.525 27.04 117.232 26.88C116.952 26.7067 116.638 26.62 116.292 26.62C115.852 26.62 115.438 26.7333 115.052 26.96C114.665 27.1867 114.318 27.4867 114.012 27.86C113.705 28.22 113.465 28.6267 113.292 29.08C113.118 29.5333 113.032 30 113.032 30.48C113.032 30.92 113.118 31.3333 113.292 31.72C113.465 32.0933 113.705 32.3867 114.012 32.6C114.332 32.8133 114.698 32.92 115.112 32.92ZM126.838 35.2C125.825 35.2 124.992 35 124.338 34.6C123.698 34.2 123.225 33.6667 122.918 33C122.612 32.32 122.458 31.5733 122.458 30.76C122.458 29.9067 122.612 29.0933 122.918 28.32C123.238 27.5467 123.685 26.86 124.258 26.26C124.832 25.66 125.505 25.1933 126.278 24.86C127.065 24.5133 127.925 24.34 128.858 24.34C129.872 24.34 130.698 24.54 131.338 24.94C131.992 25.34 132.472 25.8733 132.778 26.54C133.085 27.2067 133.238 27.9533 133.238 28.78C133.238 29.6333 133.078 30.4467 132.758 31.22C132.452 31.9933 132.012 32.68 131.438 33.28C130.865 33.88 130.185 34.3533 129.398 34.7C128.625 35.0333 127.772 35.2 126.838 35.2ZM127.238 32.92C127.652 32.92 128.052 32.8267 128.438 32.64C128.825 32.4533 129.165 32.1867 129.458 31.84C129.765 31.4933 130.005 31.0867 130.178 30.62C130.365 30.1533 130.458 29.6467 130.458 29.1C130.458 28.6067 130.378 28.1733 130.218 27.8C130.072 27.4267 129.845 27.14 129.538 26.94C129.245 26.7267 128.885 26.62 128.458 26.62C128.045 26.62 127.645 26.7133 127.258 26.9C126.885 27.0867 126.545 27.3533 126.238 27.7C125.932 28.0467 125.685 28.46 125.498 28.94C125.325 29.4067 125.238 29.9133 125.238 30.46C125.238 30.94 125.312 31.3667 125.458 31.74C125.618 32.1133 125.845 32.4067 126.138 32.62C126.445 32.82 126.812 32.92 127.238 32.92ZM136.017 24.52H138.477L137.997 26.76C138.504 26.04 139.07 25.4733 139.697 25.06C140.337 24.6333 140.964 24.42 141.577 24.42C141.71 24.42 141.81 24.4267 141.877 24.44C141.957 24.44 142.017 24.4467 142.057 24.46L141.557 26.84C140.797 26.84 140.077 27 139.397 27.32C138.73 27.6267 138.204 28.0733 137.817 28.66L136.477 35H133.797L136.017 24.52ZM143.576 24.52H146.256L144.036 35H141.356L143.576 24.52ZM144.456 20.4H147.136L146.576 23.06H143.896L144.456 20.4ZM150.514 35.2C149.741 35.2 149.074 35.0133 148.514 34.64C147.967 34.2533 147.541 33.74 147.234 33.1C146.941 32.4467 146.794 31.7133 146.794 30.9C146.794 30.0333 146.947 29.2067 147.254 28.42C147.561 27.6333 147.981 26.9333 148.514 26.32C149.061 25.7067 149.674 25.2267 150.354 24.88C151.047 24.52 151.774 24.34 152.534 24.34C153.254 24.34 153.867 24.5333 154.374 24.92C154.881 25.2933 155.227 25.7733 155.414 26.36L155.814 24.56H158.494L156.934 31.92C156.921 31.9867 156.907 32.0533 156.894 32.12C156.881 32.1733 156.874 32.2267 156.874 32.28C156.874 32.56 157.034 32.7067 157.354 32.72L156.874 35C156.634 35.04 156.421 35.0733 156.234 35.1C156.061 35.1267 155.907 35.14 155.774 35.14C155.294 35.14 154.921 35.04 154.654 34.84C154.387 34.64 154.254 34.34 154.254 33.94C154.254 33.8867 154.261 33.8267 154.274 33.76C154.287 33.68 154.301 33.5933 154.314 33.5C154.327 33.3933 154.347 33.2867 154.374 33.18C153.867 33.8333 153.267 34.3333 152.574 34.68C151.881 35.0267 151.194 35.2 150.514 35.2ZM151.714 32.92C151.941 32.92 152.181 32.88 152.434 32.8C152.687 32.7067 152.934 32.5867 153.174 32.44C153.427 32.28 153.661 32.0933 153.874 31.88C154.087 31.6533 154.267 31.4133 154.414 31.16L154.934 28.66C154.894 28.2733 154.774 27.9267 154.574 27.62C154.374 27.3133 154.127 27.0733 153.834 26.9C153.541 26.7133 153.227 26.62 152.894 26.62C152.467 26.62 152.054 26.7333 151.654 26.96C151.267 27.1733 150.921 27.4667 150.614 27.84C150.307 28.2 150.061 28.6133 149.874 29.08C149.701 29.5333 149.614 30 149.614 30.48C149.614 30.9333 149.701 31.3467 149.874 31.72C150.047 32.0933 150.287 32.3867 150.594 32.6C150.914 32.8133 151.287 32.92 151.714 32.92Z" fill="white"/>
<path d="M37.4444 13H26.7778C26.3063 13 25.8541 13.1873 25.5207 13.5207C25.1873 13.8541 25 14.3063 25 14.7778V25.4444C25 25.9159 25.1873 26.3681 25.5207 26.7015C25.8541 27.0349 26.3063 27.2222 26.7778 27.2222H37.4444C37.9159 27.2222 38.3681 27.0349 38.7015 26.7015C39.0349 26.3681 39.2222 25.9159 39.2222 25.4444V14.7778C39.2222 14.3063 39.0349 13.8541 38.7015 13.5207C38.3681 13.1873 37.9159 13 37.4444 13ZM35.6667 23.6667H28.5556V16.5556H35.6667V23.6667ZM55.2222 13H44.5556C44.0841 13 43.6319 13.1873 43.2985 13.5207C42.9651 13.8541 42.7778 14.3063 42.7778 14.7778V25.4444C42.7778 25.9159 42.9651 26.3681 43.2985 26.7015C43.6319 27.0349 44.0841 27.2222 44.5556 27.2222H55.2222C55.6937 27.2222 56.1459 27.0349 56.4793 26.7015C56.8127 26.3681 57 25.9159 57 25.4444V14.7778C57 14.3063 56.8127 13.8541 56.4793 13.5207C56.1459 13.1873 55.6937 13 55.2222 13ZM53.4444 23.6667H46.3333V16.5556H53.4444V23.6667ZM37.4444 30.7778H26.7778C26.3063 30.7778 25.8541 30.9651 25.5207 31.2985C25.1873 31.6319 25 32.0841 25 32.5556V43.2222C25 43.6937 25.1873 44.1459 25.5207 44.4793C25.8541 44.8127 26.3063 45 26.7778 45H37.4444C37.9159 45 38.3681 44.8127 38.7015 44.4793C39.0349 44.1459 39.2222 43.6937 39.2222 43.2222V32.5556C39.2222 32.0841 39.0349 31.6319 38.7015 31.2985C38.3681 30.9651 37.9159 30.7778 37.4444 30.7778ZM35.6667 41.4444H28.5556V34.3333H35.6667V41.4444ZM49.8889 30.7778C45.9671 30.7778 42.7778 33.9671 42.7778 37.8889C42.7778 41.8107 45.9671 45 49.8889 45C53.8107 45 57 41.8107 57 37.8889C57 33.9671 53.8107 30.7778 49.8889 30.7778ZM49.8889 41.4444C47.928 41.4444 46.3333 39.8498 46.3333 37.8889C46.3333 35.928 47.928 34.3333 49.8889 34.3333C51.8498 34.3333 53.4444 35.928 53.4444 37.8889C53.4444 39.8498 51.8498 41.4444 49.8889 41.4444Z" fill="#FFFDFD"/>
</svg>
