<svg width="181" height="60" viewBox="0 0 181 60" fill="none" xmlns="http://www.w3.org/2000/svg">
<rect x="1" y="1" width="179" height="58" rx="19" fill="#3B9438" stroke="white" stroke-width="2"/>
<path d="M66.2476 34.22H68.9116L70.8376 41.492L75.8776 34.22H78.5236L75.8056 47H73.3396L75.1396 38.54L70.8016 44.84H69.4516L67.7956 38.54L65.9956 47H63.5296L66.2476 34.22ZM80.217 37.568H82.629L80.631 47H78.219L80.217 37.568ZM81.009 33.86H83.421L82.917 36.254H80.505L81.009 33.86ZM91.2197 47.18C90.3797 47.18 89.6717 47 89.0957 46.64C88.5197 46.28 88.0877 45.8 87.7997 45.2C87.5117 44.588 87.3677 43.922 87.3677 43.202C87.3677 42.458 87.5117 41.738 87.7997 41.042C88.0877 40.346 88.4897 39.728 89.0057 39.188C89.5337 38.636 90.1577 38.204 90.8777 37.892C91.5977 37.568 92.3897 37.406 93.2537 37.406C94.2617 37.406 95.0597 37.628 95.6477 38.072C96.2477 38.516 96.6437 39.098 96.8357 39.818L94.3517 40.538C94.2317 40.19 94.0397 39.926 93.7757 39.746C93.5117 39.554 93.1937 39.458 92.8217 39.458C92.4497 39.458 92.0837 39.548 91.7237 39.728C91.3757 39.896 91.0577 40.142 90.7697 40.466C90.4937 40.778 90.2717 41.144 90.1037 41.564C89.9477 41.984 89.8697 42.434 89.8697 42.914C89.8697 43.346 89.9417 43.73 90.0857 44.066C90.2297 44.402 90.4337 44.666 90.6977 44.858C90.9617 45.038 91.2677 45.128 91.6157 45.128C91.8797 45.128 92.1377 45.08 92.3897 44.984C92.6537 44.888 92.8937 44.756 93.1097 44.588C93.3257 44.42 93.4997 44.228 93.6317 44.012L95.8277 44.732C95.5157 45.2 95.1257 45.62 94.6577 45.992C94.1897 46.364 93.6617 46.658 93.0737 46.874C92.4977 47.078 91.8797 47.18 91.2197 47.18ZM99.4635 47.18C97.9875 47.18 97.2495 46.412 97.2495 44.876C97.2495 44.66 97.2615 44.438 97.2855 44.21C97.3215 43.982 97.3695 43.736 97.4295 43.472L98.6895 37.568H101.084L99.9495 42.95C99.8655 43.298 99.8235 43.598 99.8235 43.85C99.8235 44.702 100.184 45.128 100.904 45.128C101.192 45.128 101.48 45.068 101.768 44.948C102.068 44.816 102.368 44.624 102.668 44.372C102.968 44.12 103.244 43.802 103.496 43.418L104.738 37.568H107.15L105.728 44.228C105.716 44.288 105.704 44.348 105.692 44.408C105.692 44.456 105.692 44.504 105.692 44.552C105.692 44.804 105.836 44.936 106.124 44.948L105.692 47C105.476 47.036 105.284 47.066 105.116 47.09C104.96 47.114 104.816 47.126 104.684 47.126C104.276 47.126 103.952 47.042 103.712 46.874C103.472 46.706 103.352 46.448 103.352 46.1C103.352 46.04 103.352 45.974 103.352 45.902C103.364 45.83 103.376 45.74 103.388 45.632C103.412 45.512 103.442 45.38 103.478 45.236C102.938 45.872 102.32 46.358 101.624 46.694C100.94 47.018 100.22 47.18 99.4635 47.18ZM111.663 47.18C110.871 47.18 110.181 47.012 109.593 46.676C109.017 46.328 108.573 45.854 108.261 45.254C107.961 44.642 107.811 43.952 107.811 43.184C107.811 42.404 107.961 41.666 108.261 40.97C108.561 40.274 108.981 39.662 109.521 39.134C110.061 38.594 110.691 38.174 111.411 37.874C112.131 37.562 112.911 37.406 113.751 37.406C114.435 37.406 115.029 37.508 115.533 37.712C116.037 37.916 116.427 38.216 116.703 38.612C116.979 38.996 117.117 39.47 117.117 40.034C117.117 41.03 116.661 41.786 115.749 42.302C114.849 42.818 113.493 43.076 111.681 43.076C111.321 43.076 110.931 43.07 110.511 43.058C110.091 43.034 109.635 42.998 109.143 42.95L109.449 41.438C109.881 41.474 110.277 41.504 110.637 41.528C110.997 41.54 111.351 41.546 111.699 41.546C112.479 41.546 113.091 41.492 113.535 41.384C113.991 41.276 114.321 41.12 114.525 40.916C114.729 40.712 114.831 40.472 114.831 40.196C114.831 39.956 114.771 39.764 114.651 39.62C114.531 39.464 114.363 39.35 114.147 39.278C113.943 39.194 113.697 39.152 113.409 39.152C112.941 39.152 112.509 39.266 112.113 39.494C111.729 39.71 111.393 40.01 111.105 40.394C110.817 40.778 110.595 41.216 110.439 41.708C110.283 42.2 110.205 42.722 110.205 43.274C110.205 43.682 110.271 44.054 110.403 44.39C110.547 44.714 110.757 44.966 111.033 45.146C111.309 45.326 111.663 45.416 112.095 45.416C112.575 45.416 113.025 45.302 113.445 45.074C113.877 44.846 114.219 44.528 114.471 44.12L116.379 44.714C116.067 45.194 115.659 45.62 115.155 45.992C114.651 46.364 114.099 46.658 113.499 46.874C112.899 47.078 112.287 47.18 111.663 47.18ZM119.364 37.568H121.542L121.164 39.314C121.476 38.906 121.836 38.564 122.244 38.288C122.664 38 123.114 37.784 123.594 37.64C124.086 37.484 124.59 37.406 125.106 37.406C125.658 37.406 126.084 37.502 126.384 37.694C126.684 37.886 126.894 38.15 127.014 38.486C127.146 38.81 127.212 39.176 127.212 39.584C127.212 39.836 127.194 40.088 127.158 40.34C127.122 40.592 127.08 40.85 127.032 41.114L125.79 47H123.378L124.494 41.708C124.542 41.528 124.572 41.36 124.584 41.204C124.608 41.048 124.62 40.898 124.62 40.754C124.62 40.334 124.524 40.028 124.332 39.836C124.152 39.632 123.906 39.53 123.594 39.53C123.306 39.53 122.994 39.614 122.658 39.782C122.322 39.95 122.004 40.184 121.704 40.484C121.404 40.772 121.152 41.108 120.948 41.492L119.778 47H117.365L119.364 37.568ZM128.637 45.506C128.637 45.398 128.643 45.29 128.655 45.182C128.667 45.074 128.685 44.96 128.709 44.84L129.861 39.422H128.691L129.087 37.568H130.239L130.887 34.508H133.299L132.651 37.568H134.541L134.145 39.422H132.273L131.283 44.03C131.271 44.078 131.259 44.126 131.247 44.174C131.247 44.222 131.247 44.27 131.247 44.318C131.247 44.546 131.313 44.708 131.445 44.804C131.577 44.9 131.739 44.948 131.931 44.948C132.087 44.948 132.243 44.93 132.399 44.894C132.567 44.858 132.723 44.81 132.867 44.75C133.011 44.69 133.137 44.642 133.245 44.606L133.317 46.514C133.077 46.622 132.807 46.73 132.507 46.838C132.207 46.934 131.895 47.012 131.571 47.072C131.247 47.132 130.923 47.162 130.599 47.162C130.035 47.162 129.567 47.036 129.195 46.784C128.823 46.52 128.637 46.094 128.637 45.506ZM138.036 47.18C137.34 47.18 136.74 47.012 136.236 46.676C135.744 46.328 135.36 45.866 135.084 45.29C134.82 44.702 134.688 44.042 134.688 43.31C134.688 42.53 134.826 41.786 135.102 41.078C135.378 40.37 135.756 39.74 136.236 39.188C136.728 38.636 137.28 38.204 137.892 37.892C138.516 37.568 139.17 37.406 139.854 37.406C140.502 37.406 141.054 37.58 141.51 37.928C141.966 38.264 142.278 38.696 142.446 39.224L142.806 37.604H145.218L143.814 44.228C143.802 44.288 143.79 44.348 143.778 44.408C143.766 44.456 143.76 44.504 143.76 44.552C143.76 44.804 143.904 44.936 144.192 44.948L143.76 47C143.544 47.036 143.352 47.066 143.184 47.09C143.028 47.114 142.89 47.126 142.77 47.126C142.338 47.126 142.002 47.036 141.762 46.856C141.522 46.676 141.402 46.406 141.402 46.046C141.402 45.998 141.408 45.944 141.42 45.884C141.432 45.812 141.444 45.734 141.456 45.65C141.468 45.554 141.486 45.458 141.51 45.362C141.054 45.95 140.514 46.4 139.89 46.712C139.266 47.024 138.648 47.18 138.036 47.18ZM139.116 45.128C139.32 45.128 139.536 45.092 139.764 45.02C139.992 44.936 140.214 44.828 140.43 44.696C140.658 44.552 140.868 44.384 141.06 44.192C141.252 43.988 141.414 43.772 141.546 43.544L142.014 41.294C141.978 40.946 141.87 40.634 141.69 40.358C141.51 40.082 141.288 39.866 141.024 39.71C140.76 39.542 140.478 39.458 140.178 39.458C139.794 39.458 139.422 39.56 139.062 39.764C138.714 39.956 138.402 40.22 138.126 40.556C137.85 40.88 137.628 41.252 137.46 41.672C137.304 42.08 137.226 42.5 137.226 42.932C137.226 43.34 137.304 43.712 137.46 44.048C137.616 44.384 137.832 44.648 138.108 44.84C138.396 45.032 138.732 45.128 139.116 45.128Z" fill="white"/>
<path d="M50.2076 14.1129H52.6736L49.9556 26.8749H47.4896L50.2076 14.1129ZM54.3684 17.4429H56.5464L56.1684 19.1889C56.4804 18.7809 56.8404 18.4389 57.2484 18.1629C57.6684 17.8749 58.1184 17.6589 58.5984 17.5149C59.0904 17.3589 59.5944 17.2809 60.1104 17.2809C60.6624 17.2809 61.0884 17.3769 61.3884 17.5689C61.6884 17.7609 61.8984 18.0249 62.0184 18.3609C62.1504 18.6849 62.2164 19.0509 62.2164 19.4589C62.2164 19.7109 62.1984 19.9629 62.1624 20.2149C62.1264 20.4669 62.0844 20.7249 62.0364 20.9889L60.7944 26.8749H58.3824L59.4984 21.5829C59.5464 21.4029 59.5764 21.2349 59.5884 21.0789C59.6124 20.9229 59.6244 20.7729 59.6244 20.6289C59.6244 20.2089 59.5284 19.9029 59.3364 19.7109C59.1564 19.5069 58.9104 19.4049 58.5984 19.4049C58.3104 19.4049 57.9984 19.4889 57.6624 19.6569C57.3264 19.8249 57.0084 20.0589 56.7084 20.3589C56.4084 20.6469 56.1564 20.9829 55.9524 21.3669L54.7824 26.8749H52.3704L54.3684 17.4429ZM64.8449 17.4429H67.2569L65.2589 26.8749H62.8469L64.8449 17.4429ZM65.6369 13.7349H68.0489L67.5449 16.1289H65.1329L65.6369 13.7349ZM71.5937 27.0549C70.7537 27.0549 70.0457 26.8749 69.4697 26.5149C68.8937 26.1549 68.4617 25.6749 68.1737 25.0749C67.8857 24.4629 67.7417 23.7969 67.7417 23.0769C67.7417 22.3329 67.8857 21.6129 68.1737 20.9169C68.4617 20.2209 68.8637 19.6029 69.3797 19.0629C69.9077 18.5109 70.5317 18.0789 71.2517 17.7669C71.9717 17.4429 72.7637 17.2809 73.6277 17.2809C74.6357 17.2809 75.4337 17.5029 76.0217 17.9469C76.6217 18.3909 77.0177 18.9729 77.2097 19.6929L74.7257 20.4129C74.6057 20.0649 74.4137 19.8009 74.1497 19.6209C73.8857 19.4289 73.5677 19.3329 73.1957 19.3329C72.8237 19.3329 72.4577 19.4229 72.0977 19.6029C71.7497 19.7709 71.4317 20.0169 71.1437 20.3409C70.8677 20.6529 70.6457 21.0189 70.4777 21.4389C70.3217 21.8589 70.2437 22.3089 70.2437 22.7889C70.2437 23.2209 70.3157 23.6049 70.4597 23.9409C70.6037 24.2769 70.8077 24.5409 71.0717 24.7329C71.3357 24.9129 71.6417 25.0029 71.9897 25.0029C72.2537 25.0029 72.5117 24.9549 72.7637 24.8589C73.0277 24.7629 73.2677 24.6309 73.4837 24.4629C73.6997 24.2949 73.8737 24.1029 74.0057 23.8869L76.2017 24.6069C75.8897 25.0749 75.4997 25.4949 75.0317 25.8669C74.5637 26.2389 74.0357 26.5329 73.4477 26.7489C72.8717 26.9529 72.2537 27.0549 71.5937 27.0549ZM79.1535 17.4429H81.5655L79.5675 26.8749H77.1555L79.1535 17.4429ZM79.9455 13.7349H82.3575L81.8535 16.1289H79.4415L79.9455 13.7349ZM85.3983 27.0549C84.7023 27.0549 84.1023 26.8869 83.5983 26.5509C83.1063 26.2029 82.7223 25.7409 82.4463 25.1649C82.1823 24.5769 82.0503 23.9169 82.0503 23.1849C82.0503 22.4049 82.1883 21.6609 82.4643 20.9529C82.7403 20.2449 83.1183 19.6149 83.5983 19.0629C84.0903 18.5109 84.6423 18.0789 85.2543 17.7669C85.8783 17.4429 86.5323 17.2809 87.2163 17.2809C87.8643 17.2809 88.4163 17.4549 88.8723 17.8029C89.3283 18.1389 89.6403 18.5709 89.8083 19.0989L90.1683 17.4789H92.5803L91.1763 24.1029C91.1643 24.1629 91.1523 24.2229 91.1403 24.2829C91.1283 24.3309 91.1223 24.3789 91.1223 24.4269C91.1223 24.6789 91.2663 24.8109 91.5543 24.8229L91.1223 26.8749C90.9063 26.9109 90.7143 26.9409 90.5463 26.9649C90.3903 26.9889 90.2523 27.0009 90.1323 27.0009C89.7003 27.0009 89.3643 26.9109 89.1243 26.7309C88.8843 26.5509 88.7643 26.2809 88.7643 25.9209C88.7643 25.8729 88.7703 25.8189 88.7823 25.7589C88.7943 25.6869 88.8063 25.6089 88.8183 25.5249C88.8303 25.4289 88.8483 25.3329 88.8723 25.2369C88.4163 25.8249 87.8763 26.2749 87.2523 26.5869C86.6283 26.8989 86.0103 27.0549 85.3983 27.0549ZM86.4783 25.0029C86.6823 25.0029 86.8983 24.9669 87.1263 24.8949C87.3543 24.8109 87.5763 24.7029 87.7923 24.5709C88.0203 24.4269 88.2303 24.2589 88.4223 24.0669C88.6143 23.8629 88.7763 23.6469 88.9083 23.4189L89.3763 21.1689C89.3403 20.8209 89.2323 20.5089 89.0523 20.2329C88.8723 19.9569 88.6503 19.7409 88.3863 19.5849C88.1223 19.4169 87.8403 19.3329 87.5403 19.3329C87.1563 19.3329 86.7843 19.4349 86.4243 19.6389C86.0763 19.8309 85.7643 20.0949 85.4883 20.4309C85.2123 20.7549 84.9903 21.1269 84.8223 21.5469C84.6663 21.9549 84.5883 22.3749 84.5883 22.8069C84.5883 23.2149 84.6663 23.5869 84.8223 23.9229C84.9783 24.2589 85.1943 24.5229 85.4703 24.7149C85.7583 24.9069 86.0943 25.0029 86.4783 25.0029ZM94.9387 17.4429H97.1527L96.7207 19.4589C97.1767 18.8109 97.6867 18.3009 98.2507 17.9289C98.8267 17.5449 99.3907 17.3529 99.9427 17.3529C100.063 17.3529 100.153 17.3589 100.213 17.3709C100.285 17.3709 100.339 17.3769 100.375 17.3889L99.9247 19.5309C99.2407 19.5309 98.5927 19.6749 97.9807 19.9629C97.3807 20.2389 96.9067 20.6409 96.5587 21.1689L95.3527 26.8749H92.9407L94.9387 17.4429ZM107.066 27.0549C106.298 27.0549 105.572 26.9289 104.888 26.6769C104.216 26.4249 103.676 26.0649 103.268 25.5969L104.474 24.0849C104.93 24.4809 105.398 24.7869 105.878 25.0029C106.358 25.2069 106.844 25.3089 107.336 25.3089C107.672 25.3089 107.96 25.2609 108.2 25.1649C108.44 25.0569 108.626 24.9189 108.758 24.7509C108.89 24.5709 108.956 24.3669 108.956 24.1389C108.956 23.8389 108.824 23.6169 108.56 23.4729C108.296 23.3289 107.882 23.1729 107.318 23.0049C106.694 22.8009 106.178 22.6089 105.77 22.4289C105.374 22.2369 105.08 22.0149 104.888 21.7629C104.696 21.4989 104.6 21.1689 104.6 20.7729C104.6 20.1009 104.786 19.5009 105.158 18.9729C105.542 18.4449 106.052 18.0309 106.688 17.7309C107.336 17.4189 108.056 17.2629 108.848 17.2629C109.532 17.2629 110.144 17.3709 110.684 17.5869C111.224 17.7909 111.704 18.1149 112.124 18.5589L110.846 20.0169C110.462 19.6569 110.09 19.3989 109.73 19.2429C109.382 19.0749 108.998 18.9909 108.578 18.9909C108.266 18.9909 107.984 19.0389 107.732 19.1349C107.492 19.2189 107.3 19.3509 107.156 19.5309C107.012 19.7109 106.94 19.9269 106.94 20.1789C106.94 20.4549 107.048 20.6589 107.264 20.7909C107.492 20.9109 107.882 21.0549 108.434 21.2229C109.106 21.4149 109.658 21.6189 110.09 21.8349C110.522 22.0389 110.846 22.2849 111.062 22.5729C111.278 22.8609 111.386 23.2269 111.386 23.6709C111.386 24.3309 111.206 24.9129 110.846 25.4169C110.486 25.9209 109.982 26.3229 109.334 26.6229C108.686 26.9109 107.93 27.0549 107.066 27.0549ZM116.471 27.0549C115.679 27.0549 114.989 26.8869 114.401 26.5509C113.825 26.2029 113.381 25.7289 113.069 25.1289C112.769 24.5169 112.619 23.8269 112.619 23.0589C112.619 22.2789 112.769 21.5409 113.069 20.8449C113.369 20.1489 113.789 19.5369 114.329 19.0089C114.869 18.4689 115.499 18.0489 116.219 17.7489C116.939 17.4369 117.719 17.2809 118.559 17.2809C119.243 17.2809 119.837 17.3829 120.341 17.5869C120.845 17.7909 121.235 18.0909 121.511 18.4869C121.787 18.8709 121.925 19.3449 121.925 19.9089C121.925 20.9049 121.469 21.6609 120.557 22.1769C119.657 22.6929 118.301 22.9509 116.489 22.9509C116.129 22.9509 115.739 22.9449 115.319 22.9329C114.899 22.9089 114.443 22.8729 113.951 22.8249L114.257 21.3129C114.689 21.3489 115.085 21.3789 115.445 21.4029C115.805 21.4149 116.159 21.4209 116.507 21.4209C117.287 21.4209 117.899 21.3669 118.343 21.2589C118.799 21.1509 119.129 20.9949 119.333 20.7909C119.537 20.5869 119.639 20.3469 119.639 20.0709C119.639 19.8309 119.579 19.6389 119.459 19.4949C119.339 19.3389 119.171 19.2249 118.955 19.1529C118.751 19.0689 118.505 19.0269 118.217 19.0269C117.749 19.0269 117.317 19.1409 116.921 19.3689C116.537 19.5849 116.201 19.8849 115.913 20.2689C115.625 20.6529 115.403 21.0909 115.247 21.5829C115.091 22.0749 115.013 22.5969 115.013 23.1489C115.013 23.5569 115.079 23.9289 115.211 24.2649C115.355 24.5889 115.565 24.8409 115.841 25.0209C116.117 25.2009 116.471 25.2909 116.903 25.2909C117.383 25.2909 117.833 25.1769 118.253 24.9489C118.685 24.7209 119.027 24.4029 119.279 23.9949L121.187 24.5889C120.875 25.0689 120.467 25.4949 119.963 25.8669C119.459 26.2389 118.907 26.5329 118.307 26.7489C117.707 26.9529 117.095 27.0549 116.471 27.0549ZM125.593 27.0549C124.825 27.0549 124.099 26.9289 123.415 26.6769C122.743 26.4249 122.203 26.0649 121.795 25.5969L123.001 24.0849C123.457 24.4809 123.925 24.7869 124.405 25.0029C124.885 25.2069 125.371 25.3089 125.863 25.3089C126.199 25.3089 126.487 25.2609 126.727 25.1649C126.967 25.0569 127.153 24.9189 127.285 24.7509C127.417 24.5709 127.483 24.3669 127.483 24.1389C127.483 23.8389 127.351 23.6169 127.087 23.4729C126.823 23.3289 126.409 23.1729 125.845 23.0049C125.221 22.8009 124.705 22.6089 124.297 22.4289C123.901 22.2369 123.607 22.0149 123.415 21.7629C123.223 21.4989 123.127 21.1689 123.127 20.7729C123.127 20.1009 123.313 19.5009 123.685 18.9729C124.069 18.4449 124.579 18.0309 125.215 17.7309C125.863 17.4189 126.583 17.2629 127.375 17.2629C128.059 17.2629 128.671 17.3709 129.211 17.5869C129.751 17.7909 130.231 18.1149 130.651 18.5589L129.373 20.0169C128.989 19.6569 128.617 19.3989 128.257 19.2429C127.909 19.0749 127.525 18.9909 127.105 18.9909C126.793 18.9909 126.511 19.0389 126.259 19.1349C126.019 19.2189 125.827 19.3509 125.683 19.5309C125.539 19.7109 125.467 19.9269 125.467 20.1789C125.467 20.4549 125.575 20.6589 125.791 20.7909C126.019 20.9109 126.409 21.0549 126.961 21.2229C127.633 21.4149 128.185 21.6189 128.617 21.8349C129.049 22.0389 129.373 22.2849 129.589 22.5729C129.805 22.8609 129.913 23.2269 129.913 23.6709C129.913 24.3309 129.733 24.9129 129.373 25.4169C129.013 25.9209 128.509 26.3229 127.861 26.6229C127.213 26.9109 126.457 27.0549 125.593 27.0549ZM132.82 17.4429H135.232L133.234 26.8749H130.822L132.82 17.4429ZM133.612 13.7349H136.024L135.52 16.1289H133.108L133.612 13.7349ZM139.658 27.0549C138.746 27.0549 137.996 26.8749 137.408 26.5149C136.832 26.1549 136.406 25.6749 136.13 25.0749C135.854 24.4629 135.716 23.7909 135.716 23.0589C135.716 22.2909 135.854 21.5589 136.13 20.8629C136.418 20.1669 136.82 19.5489 137.336 19.0089C137.852 18.4689 138.458 18.0489 139.154 17.7489C139.862 17.4369 140.636 17.2809 141.476 17.2809C142.388 17.2809 143.132 17.4609 143.708 17.8209C144.296 18.1809 144.728 18.6609 145.004 19.2609C145.28 19.8609 145.418 20.5329 145.418 21.2769C145.418 22.0449 145.274 22.7769 144.986 23.4729C144.71 24.1689 144.314 24.7869 143.798 25.3269C143.282 25.8669 142.67 26.2929 141.962 26.6049C141.266 26.9049 140.498 27.0549 139.658 27.0549ZM140.018 25.0029C140.39 25.0029 140.75 24.9189 141.098 24.7509C141.446 24.5829 141.752 24.3429 142.016 24.0309C142.292 23.7189 142.508 23.3529 142.664 22.9329C142.832 22.5129 142.916 22.0569 142.916 21.5649C142.916 21.1209 142.844 20.7309 142.7 20.3949C142.568 20.0589 142.364 19.8009 142.088 19.6209C141.824 19.4289 141.5 19.3329 141.116 19.3329C140.744 19.3329 140.384 19.4169 140.036 19.5849C139.7 19.7529 139.394 19.9929 139.118 20.3049C138.842 20.6169 138.62 20.9889 138.452 21.4209C138.296 21.8409 138.218 22.2969 138.218 22.7889C138.218 23.2209 138.284 23.6049 138.416 23.9409C138.56 24.2769 138.764 24.5409 139.028 24.7329C139.304 24.9129 139.634 25.0029 140.018 25.0029ZM147.919 17.4429H150.097L149.719 19.1889C150.031 18.7809 150.391 18.4389 150.799 18.1629C151.219 17.8749 151.669 17.6589 152.149 17.5149C152.641 17.3589 153.145 17.2809 153.661 17.2809C154.213 17.2809 154.639 17.3769 154.939 17.5689C155.239 17.7609 155.449 18.0249 155.569 18.3609C155.701 18.6849 155.767 19.0509 155.767 19.4589C155.767 19.7109 155.749 19.9629 155.713 20.2149C155.677 20.4669 155.635 20.7249 155.587 20.9889L154.345 26.8749H151.933L153.049 21.5829C153.097 21.4029 153.127 21.2349 153.139 21.0789C153.163 20.9229 153.175 20.7729 153.175 20.6289C153.175 20.2089 153.079 19.9029 152.887 19.7109C152.707 19.5069 152.461 19.4049 152.149 19.4049C151.861 19.4049 151.549 19.4889 151.213 19.6569C150.877 19.8249 150.559 20.0589 150.259 20.3589C149.959 20.6469 149.707 20.9829 149.503 21.3669L148.333 26.8749H145.921L147.919 17.4429ZM157.748 22.0689L159.458 13.9689H161.87L160.16 22.0689H157.748ZM156.722 26.8749L157.298 24.1569H159.71L159.134 26.8749H156.722Z" fill="white"/>
<path d="M17 22.6315C17 26.2877 20.5893 29.2631 25 29.2631C29.4107 29.2631 33 26.2877 33 22.6315C33 18.9753 29.4107 15.9999 25 15.9999C20.5893 15.9999 17 18.9753 17 22.6315ZM39.2222 43.9999H41V42.5263C41 36.8393 35.416 32.2105 28.5556 32.2105H21.4444C14.5822 32.2105 9 36.8393 9 42.5263V43.9999H39.2222Z" fill="#FFFDFD"/>
</svg>
