<svg width="24" height="26" viewBox="0 0 24 26" fill="none" xmlns="http://www.w3.org/2000/svg">
<path d="M0.913574 0.650024H5.46852L8.33688 12.9938H18.3905L21.343 2.59697L23.1577 3.3073L19.7682 15.2381H8.35218L7.87412 17.4824H21.9482V19.7267H5.42645L6.61778 14.1283L4.00757 2.89434H0.913574V0.650024ZM14.2992 1.77218V5.13866H17.1676V7.38298H14.2992V10.7495H12.387V7.38298H9.51864V5.13866H12.387V1.77218H14.2992ZM4.73805 23.0932C4.73805 22.498 4.93952 21.9271 5.29813 21.5062C5.65674 21.0853 6.14313 20.8489 6.65028 20.8489C7.15744 20.8489 7.64383 21.0853 8.00244 21.5062C8.36105 21.9271 8.56252 22.498 8.56252 23.0932C8.56252 23.6884 8.36105 24.2593 8.00244 24.6802C7.64383 25.1011 7.15744 25.3375 6.65028 25.3375C6.14313 25.3375 5.65674 25.1011 5.29813 24.6802C4.93952 24.2593 4.73805 23.6884 4.73805 23.0932ZM18.1237 23.0932C18.1237 22.498 18.3252 21.9271 18.6838 21.5062C19.0424 21.0853 19.5288 20.8489 20.0359 20.8489C20.5431 20.8489 21.0295 21.0853 21.3881 21.5062C21.7467 21.9271 21.9482 22.498 21.9482 23.0932C21.9482 23.6884 21.7467 24.2593 21.3881 24.6802C21.0295 25.1011 20.5431 25.3375 20.0359 25.3375C19.5288 25.3375 19.0424 25.1011 18.6838 24.6802C18.3252 24.2593 18.1237 23.6884 18.1237 23.0932Z" fill="black"/>
</svg>
