<svg width="34" height="43" viewBox="0 0 34 43" fill="none" xmlns="http://www.w3.org/2000/svg">
<path d="M33.8251 38.9193L31.3698 30.1H28.6755L30.1717 38.7H3.8292L5.32541 30.1H2.63116L0.17401 38.9193C-0.449259 41.1639 0.655382 43 2.63116 43H31.3698C33.3456 43 34.4502 41.1639 33.8251 38.9193ZM25.9813 10.75C25.9813 7.89892 25.0351 5.16462 23.3509 3.1486C21.6666 1.13259 19.3823 0 17.0005 0C14.6186 0 12.3343 1.13259 10.6501 3.1486C8.96585 5.16462 8.01966 7.89892 8.01966 10.75C8.01966 21.0163 17.0005 32.25 17.0005 32.25C17.0005 32.25 25.9813 21.0163 25.9813 10.75ZM12.1508 10.879C12.1508 10.1168 12.2763 9.36202 12.52 8.65785C12.7638 7.95367 13.121 7.31388 13.5714 6.77501C14.0217 6.23613 14.5564 5.80874 15.1447 5.51725C15.7331 5.22575 16.3637 5.07587 17.0005 5.07615C18.2864 5.07615 19.5197 5.68763 20.4291 6.77608C21.3384 7.86453 21.8492 9.34078 21.8492 10.8801C21.8492 12.4194 21.3384 13.8956 20.4291 14.9841C19.5197 16.0725 18.2864 16.684 17.0005 16.684C15.7143 16.684 14.4807 16.0724 13.5713 14.9838C12.6618 13.8951 12.1508 12.4186 12.1508 10.879Z" fill="white"/>
</svg>
