<svg width="36" height="31" viewBox="0 0 36 31" fill="none" xmlns="http://www.w3.org/2000/svg">
<path d="M15.1489 26.0163C18.5101 26.0157 21.7743 25.0495 24.422 23.2715L32.7463 30.4195L35.4239 28.1203L27.0996 20.9724C29.1712 18.6986 30.2971 15.895 30.2979 13.0081C30.2979 5.83577 23.5017 0 15.1489 0C6.79619 0 0 5.83577 0 13.0081C0 20.1805 6.79619 26.0163 15.1489 26.0163ZM15.1489 3.25203C21.4149 3.25203 26.5106 7.62764 26.5106 13.0081C26.5106 18.3886 21.4149 22.7642 15.1489 22.7642C8.88296 22.7642 3.78723 18.3886 3.78723 13.0081C3.78723 7.62764 8.88296 3.25203 15.1489 3.25203Z" fill="#137E1E"/>
<path d="M19.7136 12.6797C20.4313 13.2976 20.8271 14.1139 20.8271 14.9789H24.6143C24.616 14.1243 24.4204 13.2779 24.0388 12.4886C23.6572 11.6993 23.0972 10.9828 22.3912 10.3805C19.5243 7.92199 14.5535 7.92199 11.6885 10.3805L14.3623 12.683C15.8014 11.4504 18.2821 11.4537 19.7136 12.6797Z" fill="#137E1E"/>
</svg>
