<svg width="54" height="67" viewBox="0 0 54 67" fill="none" xmlns="http://www.w3.org/2000/svg">
<path d="M5 0H13.1908L18.3488 23.3333H36.4275L41.7367 3.6803L45 5.02303L38.905 27.5758H18.3763L17.5167 31.8182H42.8251V36.0606H13.1152L15.2575 25.4779L10.5637 4.24242H5V0ZM29.0705 2.12121V8.48485H34.2285V12.7273H29.0705V19.0909H25.6319V12.7273H20.4739V8.48485H25.6319V2.12121H29.0705ZM11.8773 42.4242C11.8773 41.2991 12.2396 40.22 12.8844 39.4244C13.5293 38.6288 14.4039 38.1818 15.3159 38.1818C16.2279 38.1818 17.1025 38.6288 17.7474 39.4244C18.3923 40.22 18.7546 41.2991 18.7546 42.4242C18.7546 43.5494 18.3923 44.6285 17.7474 45.4241C17.1025 46.2197 16.2279 46.6667 15.3159 46.6667C14.4039 46.6667 13.5293 46.2197 12.8844 45.4241C12.2396 44.6285 11.8773 43.5494 11.8773 42.4242ZM35.9478 42.4242C35.9478 41.2991 36.3101 40.22 36.9549 39.4244C37.5998 38.6288 38.4744 38.1818 39.3864 38.1818C40.2984 38.1818 41.173 38.6288 41.8179 39.4244C42.4628 40.22 42.8251 41.2991 42.8251 42.4242C42.8251 43.5494 42.4628 44.6285 41.8179 45.4241C41.173 46.2197 40.2984 46.6667 39.3864 46.6667C38.4744 46.6667 37.5998 46.2197 36.9549 45.4241C36.3101 44.6285 35.9478 43.5494 35.9478 42.4242Z" fill="#F8F8F8"/>
<path d="M2.24841 52.6467H4.02441L5.30841 57.4947L8.66841 52.6467H10.4324L8.62041 61.1667H6.97641L8.17641 55.5267L5.28441 59.7267H4.38441L3.28041 55.5267L2.08041 61.1667H0.436406L2.24841 52.6467ZM11.5613 54.8787H13.1693L11.8373 61.1667H10.2293L11.5613 54.8787ZM12.0893 52.4067H13.6973L13.3613 54.0027H11.7533L12.0893 52.4067ZM18.8964 61.2867C18.3364 61.2867 17.8644 61.1667 17.4804 60.9267C17.0964 60.6867 16.8084 60.3667 16.6164 59.9667C16.4244 59.5587 16.3284 59.1147 16.3284 58.6347C16.3284 58.1387 16.4244 57.6587 16.6164 57.1947C16.8084 56.7307 17.0764 56.3187 17.4204 55.9587C17.7724 55.5907 18.1884 55.3027 18.6684 55.0947C19.1484 54.8787 19.6764 54.7707 20.2524 54.7707C20.9244 54.7707 21.4564 54.9187 21.8484 55.2147C22.2484 55.5107 22.5124 55.8987 22.6404 56.3787L20.9844 56.8587C20.9044 56.6267 20.7764 56.4507 20.6004 56.3307C20.4244 56.2027 20.2124 56.1387 19.9644 56.1387C19.7164 56.1387 19.4724 56.1987 19.2324 56.3187C19.0004 56.4307 18.7884 56.5947 18.5964 56.8107C18.4124 57.0187 18.2644 57.2627 18.1524 57.5427C18.0484 57.8227 17.9964 58.1227 17.9964 58.4427C17.9964 58.7307 18.0444 58.9867 18.1404 59.2107C18.2364 59.4347 18.3724 59.6107 18.5484 59.7387C18.7244 59.8587 18.9284 59.9187 19.1604 59.9187C19.3364 59.9187 19.5084 59.8867 19.6764 59.8227C19.8524 59.7587 20.0124 59.6707 20.1564 59.5587C20.3004 59.4467 20.4164 59.3187 20.5044 59.1747L21.9684 59.6547C21.7604 59.9667 21.5004 60.2467 21.1884 60.4947C20.8764 60.7427 20.5244 60.9387 20.1324 61.0827C19.7484 61.2187 19.3364 61.2867 18.8964 61.2867ZM25.0643 61.2867C24.6003 61.2867 24.2003 61.1747 23.8643 60.9507C23.5363 60.7187 23.2803 60.4107 23.0963 60.0267C22.9203 59.6347 22.8323 59.1947 22.8323 58.7067C22.8323 58.1867 22.9243 57.6907 23.1083 57.2187C23.2923 56.7467 23.5443 56.3267 23.8643 55.9587C24.1923 55.5907 24.5603 55.3027 24.9683 55.0947C25.3843 54.8787 25.8203 54.7707 26.2763 54.7707C26.7083 54.7707 27.0763 54.8867 27.3803 55.1187C27.6843 55.3427 27.8923 55.6307 28.0043 55.9827L28.2443 54.9027H29.8523L28.9163 59.3187C28.9083 59.3587 28.9003 59.3987 28.8923 59.4387C28.8843 59.4707 28.8803 59.5027 28.8803 59.5347C28.8803 59.7027 28.9763 59.7907 29.1683 59.7987L28.8803 61.1667C28.7363 61.1907 28.6083 61.2107 28.4963 61.2267C28.3923 61.2427 28.3003 61.2507 28.2203 61.2507C27.9323 61.2507 27.7083 61.1907 27.5483 61.0707C27.3883 60.9507 27.3083 60.7707 27.3083 60.5307C27.3083 60.4987 27.3123 60.4627 27.3203 60.4227C27.3283 60.3747 27.3363 60.3227 27.3443 60.2667C27.3523 60.2027 27.3643 60.1387 27.3803 60.0747C27.0763 60.4667 26.7163 60.7667 26.3003 60.9747C25.8843 61.1827 25.4723 61.2867 25.0643 61.2867ZM25.7843 59.9187C25.9203 59.9187 26.0643 59.8947 26.2163 59.8467C26.3683 59.7907 26.5163 59.7187 26.6603 59.6307C26.8123 59.5347 26.9523 59.4227 27.0803 59.2947C27.2083 59.1587 27.3163 59.0147 27.4043 58.8627L27.7163 57.3627C27.6923 57.1307 27.6203 56.9227 27.5003 56.7387C27.3803 56.5547 27.2323 56.4107 27.0563 56.3067C26.8803 56.1947 26.6923 56.1387 26.4923 56.1387C26.2363 56.1387 25.9883 56.2067 25.7483 56.3427C25.5163 56.4707 25.3083 56.6467 25.1243 56.8707C24.9403 57.0867 24.7923 57.3347 24.6803 57.6147C24.5763 57.8867 24.5243 58.1667 24.5243 58.4547C24.5243 58.7267 24.5763 58.9747 24.6803 59.1987C24.7843 59.4227 24.9283 59.5987 25.1123 59.7267C25.3043 59.8547 25.5283 59.9187 25.7843 59.9187ZM31.4246 54.8787H32.9006L32.6126 56.2227C32.9166 55.7907 33.2566 55.4507 33.6326 55.2027C34.0166 54.9467 34.3926 54.8187 34.7606 54.8187C34.8406 54.8187 34.9006 54.8227 34.9406 54.8307C34.9886 54.8307 35.0246 54.8347 35.0486 54.8427L34.7486 56.2707C34.2926 56.2707 33.8606 56.3667 33.4526 56.5587C33.0526 56.7427 32.7366 57.0107 32.5046 57.3627L31.7006 61.1667H30.0926L31.4246 54.8787ZM35.9598 54.8787H37.4358L37.1478 56.2227C37.4518 55.7907 37.7918 55.4507 38.1678 55.2027C38.5518 54.9467 38.9278 54.8187 39.2958 54.8187C39.3758 54.8187 39.4358 54.8227 39.4758 54.8307C39.5238 54.8307 39.5598 54.8347 39.5838 54.8427L39.2838 56.2707C38.8278 56.2707 38.3958 56.3667 37.9878 56.5587C37.5878 56.7427 37.2718 57.0107 37.0398 57.3627L36.2358 61.1667H34.6278L35.9598 54.8787ZM40.4949 54.8787H42.1029L40.7709 61.1667H39.1629L40.4949 54.8787ZM41.0229 52.4067H42.6309L42.2949 54.0027H40.6869L41.0229 52.4067ZM42.8101 60.1707C42.8101 60.0987 42.8141 60.0267 42.8221 59.9547C42.8301 59.8827 42.8421 59.8067 42.8581 59.7267L43.6261 56.1147H42.8461L43.1101 54.8787H43.8781L44.3101 52.8387H45.9181L45.4861 54.8787H46.7461L46.4821 56.1147H45.2341L44.5741 59.1867C44.5661 59.2187 44.5581 59.2507 44.5501 59.2827C44.5501 59.3147 44.5501 59.3467 44.5501 59.3787C44.5501 59.5307 44.5941 59.6387 44.6821 59.7027C44.7701 59.7667 44.8781 59.7987 45.0061 59.7987C45.1101 59.7987 45.2141 59.7867 45.3181 59.7627C45.4301 59.7387 45.5341 59.7067 45.6301 59.6667C45.7261 59.6267 45.8101 59.5947 45.8821 59.5707L45.9301 60.8427C45.7701 60.9147 45.5901 60.9867 45.3901 61.0587C45.1901 61.1227 44.9821 61.1747 44.7661 61.2147C44.5501 61.2547 44.3341 61.2747 44.1181 61.2747C43.7421 61.2747 43.4301 61.1907 43.1821 61.0227C42.9341 60.8467 42.8101 60.5627 42.8101 60.1707ZM49.4603 61.2867C48.8523 61.2867 48.3523 61.1667 47.9603 60.9267C47.5763 60.6867 47.2923 60.3667 47.1083 59.9667C46.9243 59.5587 46.8323 59.1107 46.8323 58.6227C46.8323 58.1107 46.9243 57.6227 47.1083 57.1587C47.3003 56.6947 47.5683 56.2827 47.9123 55.9227C48.2563 55.5627 48.6603 55.2827 49.1243 55.0827C49.5963 54.8747 50.1123 54.7707 50.6723 54.7707C51.2803 54.7707 51.7763 54.8907 52.1603 55.1307C52.5523 55.3707 52.8403 55.6907 53.0243 56.0907C53.2083 56.4907 53.3003 56.9387 53.3003 57.4347C53.3003 57.9467 53.2043 58.4347 53.0123 58.8987C52.8283 59.3627 52.5643 59.7747 52.2203 60.1347C51.8763 60.4947 51.4683 60.7787 50.9963 60.9867C50.5323 61.1867 50.0203 61.2867 49.4603 61.2867ZM49.7003 59.9187C49.9483 59.9187 50.1883 59.8627 50.4203 59.7507C50.6523 59.6387 50.8563 59.4787 51.0323 59.2707C51.2163 59.0627 51.3603 58.8187 51.4643 58.5387C51.5763 58.2587 51.6323 57.9547 51.6323 57.6267C51.6323 57.3307 51.5843 57.0707 51.4883 56.8467C51.4003 56.6227 51.2643 56.4507 51.0803 56.3307C50.9043 56.2027 50.6883 56.1387 50.4323 56.1387C50.1843 56.1387 49.9443 56.1947 49.7123 56.3067C49.4883 56.4187 49.2843 56.5787 49.1003 56.7867C48.9163 56.9947 48.7683 57.2427 48.6563 57.5307C48.5523 57.8107 48.5003 58.1147 48.5003 58.4427C48.5003 58.7307 48.5443 58.9867 48.6323 59.2107C48.7283 59.4347 48.8643 59.6107 49.0403 59.7387C49.2243 59.8587 49.4443 59.9187 49.7003 59.9187Z" fill="white"/>
</svg>
