<svg width="32" height="35" viewBox="0 0 32 35" fill="none" xmlns="http://www.w3.org/2000/svg">
<path d="M31.8354 31.593L29.5245 24.4339H26.9887L28.3969 31.415H3.60396L5.01215 24.4339H2.47639L0.163774 31.593C-0.422832 33.4151 0.61683 34.9055 2.47639 34.9055H29.5245C31.3841 34.9055 32.4237 33.4151 31.8354 31.593ZM24.453 8.72638C24.453 6.412 23.5625 4.19241 21.9773 2.5559C20.3921 0.919384 18.2422 0 16.0005 0C13.7587 0 11.6088 0.919384 10.0236 2.5559C8.43844 4.19241 7.54791 6.412 7.54791 8.72638C7.54791 17.0601 16.0005 26.1791 16.0005 26.1791C16.0005 26.1791 24.453 17.0601 24.453 8.72638ZM11.4361 8.8311C11.4361 8.21236 11.5542 7.59968 11.7836 7.02807C12.013 6.45645 12.3492 5.93709 12.7731 5.49966C13.1969 5.06222 13.7001 4.71529 14.2539 4.47866C14.8076 4.24204 15.4011 4.12037 16.0005 4.1206C17.2108 4.1206 18.3715 4.61697 19.2273 5.50053C20.0832 6.38408 20.564 7.58244 20.564 8.83197C20.564 10.0815 20.0832 11.2799 19.2273 12.1634C18.3715 13.047 17.2108 13.5433 16.0005 13.5433C14.7899 13.5433 13.6289 13.0469 12.773 12.1632C11.917 11.2794 11.4361 10.0809 11.4361 8.8311Z" fill="white"/>
</svg>
