<svg width="33" height="30" viewBox="0 0 33 30" fill="none" xmlns="http://www.w3.org/2000/svg">
<path d="M25.3379 0H7.97012C3.73837 0 0.307861 3.09957 0.307861 6.92308V22.6154C0.307861 26.4389 3.73837 29.5385 7.97012 29.5385H25.3379C29.5696 29.5385 33.0002 26.4389 33.0002 22.6154V6.92308C33.0002 3.09957 29.5696 0 25.3379 0Z" fill="url(#paint0_radial_79_808)"/>
<path d="M25.3379 0H7.97012C3.73837 0 0.307861 3.09957 0.307861 6.92308V22.6154C0.307861 26.4389 3.73837 29.5385 7.97012 29.5385H25.3379C29.5696 29.5385 33.0002 26.4389 33.0002 22.6154V6.92308C33.0002 3.09957 29.5696 0 25.3379 0Z" fill="url(#paint1_radial_79_808)"/>
<path d="M16.6551 3.23193C13.1869 3.23193 12.7516 3.24566 11.3895 3.30163C10.03 3.35793 9.10193 3.55236 8.28998 3.8377C7.44994 4.1324 6.73748 4.52666 6.0277 5.1682C5.31728 5.80963 4.88092 6.45336 4.55374 7.21201C4.23703 7.94586 4.02159 8.7847 3.96042 10.0125C3.89951 11.2433 3.88354 11.6368 3.88354 14.7705C3.88354 17.9042 3.89887 18.2963 3.96068 19.527C4.02325 20.7554 4.23844 21.5939 4.55399 22.3275C4.8804 23.0865 5.31677 23.7302 6.02681 24.3716C6.73646 25.0134 7.44892 25.4086 8.28832 25.7033C9.1009 25.9887 10.0291 26.1831 11.3883 26.2394C12.7506 26.2954 13.1855 26.3091 16.6536 26.3091C20.1222 26.3091 20.5561 26.2954 21.9182 26.2394C23.2777 26.1831 24.2068 25.9887 25.0194 25.7033C25.859 25.4086 26.5705 25.0134 27.28 24.3716C27.9904 23.7302 28.4266 23.0865 28.754 22.3279C29.0679 21.5939 29.2834 20.7552 29.3473 19.5272C29.4084 18.2965 29.4244 17.9042 29.4244 14.7705C29.4244 11.6368 29.4084 11.2435 29.3473 10.0127C29.2834 8.78436 29.0679 7.94597 28.754 7.21236C28.4266 6.45336 27.9904 5.80963 27.28 5.1682C26.5697 4.52643 25.8593 4.13216 25.0186 3.83782C24.2045 3.55236 23.276 3.35782 21.9164 3.30163C20.5542 3.24566 20.1205 3.23193 16.6512 3.23193H16.6551ZM15.5095 5.31128C15.8496 5.31082 16.229 5.31128 16.6551 5.31128C20.065 5.31128 20.469 5.32236 21.8155 5.37763C23.0606 5.42909 23.7365 5.61705 24.1866 5.77501C24.7826 5.98409 25.2075 6.23413 25.6542 6.63809C26.1012 7.04193 26.3778 7.42651 26.6098 7.96501C26.7846 8.37116 26.9929 8.98178 27.0496 10.1068C27.1108 11.3232 27.1241 11.6885 27.1241 14.7679C27.1241 17.8472 27.1108 18.2127 27.0496 19.4289C26.9927 20.5539 26.7846 21.1645 26.6098 21.5708C26.3784 22.1093 26.1012 22.4927 25.6542 22.8964C25.2072 23.3002 24.7829 23.5501 24.1866 23.7593C23.737 23.918 23.0606 24.1055 21.8155 24.1569C20.4693 24.2122 20.065 24.2242 16.6551 24.2242C13.2452 24.2242 12.841 24.2122 11.4948 24.1569C10.2497 24.105 9.57392 23.917 9.12338 23.7591C8.52751 23.5499 8.10175 23.3 7.65478 22.8961C7.20782 22.4923 6.93121 22.1086 6.69917 21.5699C6.52434 21.1636 6.31606 20.553 6.25936 19.428C6.19819 18.2116 6.18593 17.8463 6.18593 14.765C6.18593 11.6837 6.19819 11.3203 6.25936 10.1039C6.31631 8.9789 6.52434 8.36828 6.69917 7.96155C6.9307 7.42305 7.20782 7.03847 7.65491 6.63463C8.10187 6.23078 8.52751 5.98074 9.12351 5.7712C9.57366 5.61255 10.2497 5.42505 11.4948 5.37336C12.6729 5.32524 13.1295 5.31082 15.5095 5.3084V5.31128ZM23.472 7.22713C22.6259 7.22713 21.9395 7.84674 21.9395 8.61128C21.9395 9.3757 22.6259 9.9959 23.472 9.9959C24.318 9.9959 25.0044 9.3757 25.0044 8.61128C25.0044 7.84686 24.318 7.22666 23.472 7.22666V7.22713ZM16.6551 8.84493C13.0334 8.84493 10.097 11.4981 10.097 14.7705C10.097 18.0429 13.0334 20.6948 16.6551 20.6948C20.2769 20.6948 23.2124 18.0429 23.2124 14.7705C23.2124 11.4982 20.2767 8.84493 16.6549 8.84493H16.6551ZM16.6551 10.9243C19.006 10.9243 20.912 12.6462 20.912 14.7705C20.912 16.8946 19.006 18.6167 16.6551 18.6167C14.3041 18.6167 12.3984 16.8946 12.3984 14.7705C12.3984 12.6462 14.3041 10.9243 16.6551 10.9243Z" fill="white"/>
<defs>
<radialGradient id="paint0_radial_79_808" cx="0" cy="0" r="1" gradientUnits="userSpaceOnUse" gradientTransform="translate(8.99175 31.8135) rotate(-90) scale(29.2748 30.135)">
<stop stop-color="#FFDD55"/>
<stop offset="0.1" stop-color="#FFDD55"/>
<stop offset="0.5" stop-color="#FF543E"/>
<stop offset="1" stop-color="#C837AB"/>
</radialGradient>
<radialGradient id="paint1_radial_79_808" cx="0" cy="0" r="1" gradientUnits="userSpaceOnUse" gradientTransform="translate(-5.16823 2.12781) rotate(77.5087) scale(13.1426 59.4432)">
<stop stop-color="#3771C8"/>
<stop offset="0.128" stop-color="#3771C8"/>
<stop offset="1" stop-color="#6600FF" stop-opacity="0"/>
</radialGradient>
</defs>
</svg>
