<svg width="33" height="30" viewBox="0 0 33 30" fill="none" xmlns="http://www.w3.org/2000/svg">
<path d="M0.831975 14.6407C0.831209 17.1307 1.55453 19.5621 2.9299 21.7051L0.700439 29.0271L9.03085 27.0624C11.3349 28.1907 13.9165 28.7818 16.5399 28.782H16.5468C25.207 28.782 32.2567 22.4431 32.2604 14.6518C32.262 10.8764 30.629 7.32623 27.6619 4.65528C24.6953 1.98455 20.7499 0.512954 16.5461 0.51123C7.88483 0.51123 0.835678 6.84975 0.832103 14.6407" fill="url(#paint0_linear_79_812)"/>
<path d="M0.271409 14.6363C0.270515 17.2159 1.01976 19.7342 2.44417 21.9539L0.134766 29.5385L8.76387 27.5033C11.1415 28.6694 13.8184 29.2841 16.5423 29.2851H16.5494C25.5203 29.2851 32.8232 22.7182 32.8271 14.648C32.8286 10.7369 31.1368 7.0591 28.0637 4.29246C24.9902 1.52616 20.9037 0.00160818 16.5494 0C7.57686 0 0.274985 6.56597 0.271409 14.6363ZM5.41023 21.5717L5.08803 21.1116C3.7336 19.1744 3.01871 16.9359 3.01973 14.6372C3.02267 7.92936 9.09169 2.472 16.5545 2.472C20.1685 2.47338 23.5649 3.74062 26.1195 6.03986C28.674 8.33933 30.0796 11.396 30.0787 14.6471C30.0754 21.3549 24.0063 26.8129 16.5494 26.8129H16.544C14.116 26.8118 11.7347 26.2253 9.65793 25.1169L9.16371 24.8533L4.04303 26.0609L5.41023 21.5715V21.5717Z" fill="url(#paint1_linear_79_812)"/>
<path d="M12.4811 8.51784C12.1764 7.90868 11.8557 7.89639 11.5659 7.88571C11.3287 7.87652 11.0574 7.87721 10.7864 7.87721C10.5152 7.87721 10.0745 7.96899 9.70197 8.33485C9.32907 8.70106 8.27832 9.58601 8.27832 11.3859C8.27832 13.1859 9.73581 14.9254 9.93899 15.1697C10.1424 15.4136 12.7527 19.2254 16.8867 20.6919C20.3225 21.9105 21.0217 21.6681 21.7673 21.607C22.5131 21.5462 24.1738 20.7223 24.5126 19.868C24.8517 19.0138 24.8517 18.2817 24.75 18.1287C24.6483 17.9762 24.3771 17.8847 23.9704 17.7018C23.5635 17.5188 21.5639 16.6337 21.1911 16.5116C20.8182 16.3896 20.5471 16.3288 20.2759 16.6951C20.0046 17.0608 19.2258 17.8847 18.9884 18.1287C18.7512 18.3732 18.5138 18.4037 18.1072 18.2207C17.7002 18.0371 16.3904 17.6513 14.8363 16.405C13.6272 15.4353 12.8109 14.2378 12.5737 13.8715C12.3364 13.5057 12.5482 13.3075 12.7522 13.1252C12.9349 12.9612 13.159 12.698 13.3626 12.4844C13.5654 12.2708 13.6331 12.1183 13.7687 11.8743C13.9045 11.6301 13.8365 11.4165 13.735 11.2335C13.6331 11.0505 12.8427 9.24118 12.4811 8.51784Z" fill="white"/>
<defs>
<linearGradient id="paint0_linear_79_812" x1="1578.7" y1="2852.1" x2="1578.7" y2="0.51123" gradientUnits="userSpaceOnUse">
<stop stop-color="#1FAF38"/>
<stop offset="1" stop-color="#60D669"/>
</linearGradient>
<linearGradient id="paint1_linear_79_812" x1="1634.75" y1="2953.85" x2="1634.75" y2="0" gradientUnits="userSpaceOnUse">
<stop stop-color="#F9F9F9"/>
<stop offset="1" stop-color="white"/>
</linearGradient>
</defs>
</svg>
