<svg width="33" height="30" viewBox="0 0 33 30" fill="none" xmlns="http://www.w3.org/2000/svg">
<path d="M32.6923 14.8595C32.6923 6.65287 25.3738 0 16.3461 0C7.31848 0 0 6.65276 0 14.8595C0 22.2762 5.97758 28.4238 13.7921 29.5385V19.1548H9.64167V14.8595H13.7921V11.5858C13.7921 7.8616 16.2325 5.80449 19.9662 5.80449C21.7547 5.80449 23.6253 6.09471 23.6253 6.09471V9.75154H21.5641C19.5334 9.75154 18.9002 10.897 18.9002 12.0722V14.8595H23.4337L22.709 19.1548H18.9002V29.5385C26.7147 28.4238 32.6923 22.2764 32.6923 14.8595Z" fill="#1877F2"/>
<path d="M22.7539 18.8542L23.4786 14.5589H18.9451V11.7716C18.9451 10.5963 19.5784 9.45096 21.609 9.45096H23.6701V5.79413C23.6701 5.79413 21.7995 5.50391 20.011 5.50391C16.2773 5.50391 13.8369 7.56102 13.8369 11.2852V14.5589H9.68652V18.8542H13.8369V29.2379C14.6818 29.3582 15.5358 29.4186 16.391 29.4184C17.2462 29.4186 18.1002 29.3583 18.9451 29.2379V18.8542H22.7539Z" fill="white"/>
</svg>
